<?xml version="1.0" encoding="UTF-8" standalone="no"?>
<!-- Created with Inkscape (http://www.inkscape.org/) -->

<svg
   xmlns:dc="http://purl.org/dc/elements/1.1/"
   xmlns:cc="http://creativecommons.org/ns#"
   xmlns:rdf="http://www.w3.org/1999/02/22-rdf-syntax-ns#"
   xmlns:svg="http://www.w3.org/2000/svg"
   xmlns="http://www.w3.org/2000/svg"
   xmlns:xlink="http://www.w3.org/1999/xlink"
   xmlns:sodipodi="http://sodipodi.sourceforge.net/DTD/sodipodi-0.dtd"
   xmlns:inkscape="http://www.inkscape.org/namespaces/inkscape"
   version="1.1"
   width="80"
   height="60"
   id="svg2"
   inkscape:version="0.47 r22583"
   sodipodi:docname="homeButton.svg">
  <metadata
     id="metadata30">
    <rdf:RDF>
      <cc:Work
         rdf:about="">
        <dc:format>image/svg+xml</dc:format>
        <dc:type
           rdf:resource="http://purl.org/dc/dcmitype/StillImage" />
        <dc:title />
      </cc:Work>
    </rdf:RDF>
  </metadata>
  <sodipodi:namedview
     pagecolor="#ffffff"
     bordercolor="#666666"
     borderopacity="1"
     objecttolerance="10"
     gridtolerance="10"
     guidetolerance="10"
     inkscape:pageopacity="0"
     inkscape:pageshadow="2"
     inkscape:window-width="1920"
     inkscape:window-height="1146"
     id="namedview28"
     showgrid="true"
     showguides="true"
     inkscape:snap-global="true"
     inkscape:zoom="14.883333"
     inkscape:cx="40.000001"
     inkscape:cy="30.000001"
     inkscape:window-x="0"
     inkscape:window-y="0"
     inkscape:window-maximized="1"
     inkscape:current-layer="svg2"
     inkscape:snap-nodes="false">
    <inkscape:grid
       type="xygrid"
       id="grid2838"
       empspacing="5"
       visible="true"
       enabled="true"
       snapvisiblegridlinesonly="true" />
  </sodipodi:namedview>
  <defs
     id="defs4">
    <inkscape:perspective
       sodipodi:type="inkscape:persp3d"
       inkscape:vp_x="0 : 30 : 1"
       inkscape:vp_y="0 : 1000 : 0"
       inkscape:vp_z="66 : 30 : 1"
       inkscape:persp3d-origin="33 : 20 : 1"
       id="perspective32" />
    <linearGradient
       id="linearGradient3937">
      <stop
         id="stop3939"
         style="stop-color:#607da7;stop-opacity:1"
         offset="0" />
      <stop
         id="stop3941"
         style="stop-color:#5f7da6;stop-opacity:1"
         offset="1" />
    </linearGradient>
    <linearGradient
       id="linearGradient3927">
      <stop
         id="stop3929"
         style="stop-color:#577399;stop-opacity:1"
         offset="0" />
      <stop
         id="stop3931"
         style="stop-color:#3b424d;stop-opacity:1"
         offset="1" />
    </linearGradient>
    <linearGradient
       id="linearGradient3880">
      <stop
         id="stop3882"
         style="stop-color:#42628c;stop-opacity:1"
         offset="0" />
      <stop
         id="stop3884"
         style="stop-color:#ffffff;stop-opacity:0.78431374;"
         offset="1" />
    </linearGradient>
    <linearGradient
       id="linearGradient3672">
      <stop
         id="stop3674"
         style="stop-color:#8ea3c1;stop-opacity:1"
         offset="0" />
      <stop
         id="stop3676"
         style="stop-color:#5f7da6;stop-opacity:1"
         offset="1" />
    </linearGradient>
    <linearGradient
       x1="0.85642862"
       y1="1036.8389"
       x2="64.997696"
       y2="1036.8389"
       id="linearGradient3886"
       xlink:href="#linearGradient3880"
       gradientUnits="userSpaceOnUse" />
    <linearGradient
       x1="32.927063"
       y1="1030.8624"
       x2="32.927063"
       y2="1051.3472"
       id="linearGradient3888"
       xlink:href="#linearGradient3880"
       gradientUnits="userSpaceOnUse"
       gradientTransform="matrix(1.0252581,0,0,1.0757574,-0.83167566,-78.548271)" />
    <linearGradient
       x1="35"
       y1="30"
       x2="35"
       y2="0"
       id="linearGradient3933"
       xlink:href="#linearGradient3927"
       gradientUnits="userSpaceOnUse" />
    <linearGradient
       x1="45"
       y1="3"
       x2="45"
       y2="20"
       id="linearGradient4016"
       xlink:href="#linearGradient3937"
       gradientUnits="userSpaceOnUse"
       gradientTransform="translate(0,992.3622)" />
    <linearGradient
       x1="5"
       y1="0"
       x2="5"
       y2="15"
       id="linearGradient4023"
       xlink:href="#linearGradient3672"
       gradientUnits="userSpaceOnUse"
       gradientTransform="matrix(1.931994,0,0,1.9259246,1.1,993.47337)" />
    <linearGradient
       x1="30"
       y1="45"
       x2="30"
       y2="60"
       id="linearGradient4029"
       xlink:href="#linearGradient3880"
       gradientUnits="userSpaceOnUse"
       gradientTransform="translate(0,992.3622)" />
    <linearGradient
       inkscape:collect="always"
       xlink:href="#linearGradient3880"
       id="linearGradient2841"
       gradientUnits="userSpaceOnUse"
       gradientTransform="translate(68.966667,0)"
       x1="30"
       y1="45"
       x2="30"
       y2="60" />
    <linearGradient
       inkscape:collect="always"
       xlink:href="#linearGradient3937"
       id="linearGradient2844"
       gradientUnits="userSpaceOnUse"
       gradientTransform="translate(68.966667,0)"
       x1="45"
       y1="3"
       x2="45"
       y2="20" />
    <linearGradient
       inkscape:collect="always"
       xlink:href="#linearGradient3927"
       id="linearGradient2847"
       gradientUnits="userSpaceOnUse"
       x1="35"
       y1="30"
       x2="35"
       y2="0"
       gradientTransform="translate(68.966667,0)" />
    <linearGradient
       inkscape:collect="always"
       xlink:href="#linearGradient3672"
       id="linearGradient2850"
       gradientUnits="userSpaceOnUse"
       gradientTransform="matrix(1.931994,0,0,1.9259246,70.066667,1.11117)"
       x1="5"
       y1="0"
       x2="5"
       y2="15" />
    <linearGradient
       inkscape:collect="always"
       xlink:href="#linearGradient3672"
       id="linearGradient3635"
       x1="25"
       y1="0"
       x2="25"
       y2="30"
       gradientUnits="userSpaceOnUse" />
    <linearGradient
       inkscape:collect="always"
       xlink:href="#linearGradient3927"
       id="linearGradient3645"
       x1="40"
       y1="30"
       x2="40"
       y2="0"
       gradientUnits="userSpaceOnUse" />
    <linearGradient
       inkscape:collect="always"
       xlink:href="#linearGradient3937"
       id="linearGradient3655"
       x1="2.5"
       y1="16.5"
       x2="77.5"
       y2="16.5"
       gradientUnits="userSpaceOnUse" />
    <linearGradient
       inkscape:collect="always"
       xlink:href="#linearGradient3880"
       id="linearGradient3665"
       x1="40"
       y1="30"
       x2="40"
       y2="60"
       gradientUnits="userSpaceOnUse" />
    <linearGradient
       inkscape:collect="always"
       xlink:href="#linearGradient3672"
       id="linearGradient3690"
       gradientUnits="userSpaceOnUse"
       x1="25"
       y1="0"
       x2="25"
       y2="30" />
    <linearGradient
       inkscape:collect="always"
       xlink:href="#linearGradient3880"
       id="linearGradient3625"
       x1="40"
       y1="30"
       x2="40"
       y2="60"
       gradientUnits="userSpaceOnUse" />
    <linearGradient
       inkscape:collect="always"
       xlink:href="#linearGradient3927"
       id="linearGradient3626"
       x1="25"
       y1="30"
       x2="25"
       y2="0"
       gradientUnits="userSpaceOnUse" />
    <linearGradient
       inkscape:collect="always"
       xlink:href="#linearGradient3880"
       id="linearGradient3662"
       x1="40"
       y1="40"
       x2="40"
       y2="58"
       gradientUnits="userSpaceOnUse"
       gradientTransform="matrix(1,0,0,1.0357143,0,-1.0714286)" />
    <linearGradient
       inkscape:collect="always"
       xlink:href="#linearGradient3672"
       id="linearGradient3681"
       x1="39.880741"
       y1="1.814108"
       x2="39.972149"
       y2="30.167973"
       gradientUnits="userSpaceOnUse"
       gradientTransform="matrix(0.99990397,0,0,1.0072002,0.00384868,-0.01774058)" />
    <linearGradient
       inkscape:collect="always"
       xlink:href="#linearGradient3937"
       id="linearGradient3685"
       gradientUnits="userSpaceOnUse"
       x1="39.880741"
       y1="1.814108"
       x2="78.439529"
       y2="16.461365"
       gradientTransform="matrix(0.99990397,0,0,1.0072002,0.00384868,-0.01774058)" />
  </defs>
  <path
     style="fill:url(#linearGradient3681);fill-opacity:1;stroke:url(#linearGradient3685);stroke-width:2.00709081;stroke-linecap:butt;stroke-linejoin:round;stroke-miterlimit:4;stroke-opacity:1;stroke-dasharray:none"
     d="m 14.985613,30.164427 -1.813935,-1.980563 c 0,0 -10.0043137,0.03401 -10.0102378,-2.012145 C 3.1525977,23.117492 39.910431,2.9598711 39.910431,2.9598711 L 57.982605,14.058247 c 0,0 2.543608,1.098072 3.090409,0.744404 0.547773,-0.354298 0.873376,-1.759499 0.873376,-1.759499 l -0.448447,-6.5140915 6.999328,0 -0.437246,10.6421455 c 0,0 0.44098,1.438647 0.94056,1.962518 0.527465,0.553113 2.015484,1.082769 2.015484,1.082769 0,0 5.688213,3.588135 5.979268,6.564283 0.182362,1.864727 -10.144602,1.403088 -10.144602,1.403088 l -1.881119,1.980563"
     id="path2854"
     sodipodi:nodetypes="ccsccsccccscscc" />
  <path
     style="fill:#496a99;fill-opacity:1;stroke:none"
     d="m 13.938476,30 -0.06033,24.248649 c 0,0 -0.0078,0.445528 0.12066,1.030568 0.128418,0.585039 0.388484,1.305695 0.904952,1.848959 0.499644,0.525565 1.26892,0.803588 1.900399,0.939635 0.631478,0.136048 1.116107,0.121243 1.116107,0.121243 l 44.161639,-0.121243 c 0,0 0.513795,-0.003 1.146272,-0.121243 0.632477,-0.118239 1.37458,-0.351933 1.870234,-0.818392 0.47826,-0.450098 0.750768,-1.194026 0.904951,-1.818649 0.154184,-0.624623 0.18099,-1.1215 0.18099,-1.1215 L 66.06369,30 13.938476,30 z"
     id="path2852" />
  <path
     style="fill:none;stroke:url(#linearGradient3626);stroke-width:2;stroke-linecap:round;stroke-linejoin:round;stroke-opacity:1;stroke-miterlimit:4;stroke-dasharray:none"
     d="M 12.967525,29.899215 13,29 C 13,29 -1,30 2,25 3.8550408,21.908265 38,2 38,2 c 0,0 1.254644,-1 2,-1 0.745356,0 2,1 2,1 l 18,11 0,-8 10,0 0,13 c 0,0 6.539301,4.914168 8.12654,7 C 81.950525,30.025199 67,29.165734 67,29.165734 L 67,30"
     id="path2845"
     sodipodi:nodetypes="ccscscccccscc" />
  <path
     style="fill:none;stroke:url(#linearGradient3662);stroke-width:2.03540087;stroke-linecap:butt;stroke-linejoin:round;stroke-miterlimit:4;stroke-opacity:1;stroke-dasharray:none"
     d="m 13,30 -0.06719,24.991521 c 0,0 -0.0029,1.85257 1.067189,2.972765 1.035229,1.083701 3.134378,1.102904 3.134378,1.102904 l 45.731243,-0.134379 c 0,0 2.107417,-0.0067 3.134379,-0.968525 0.990924,-0.928089 1.134379,-3.039954 1.134379,-3.039954 L 67,30"
     id="path3653"
     sodipodi:nodetypes="ccsccscc" />
</svg>
