<?xml version="1.0" encoding="UTF-8" standalone="no"?>
<!-- Created with Inkscape (http://www.inkscape.org/) -->

<svg
   xmlns:svg="http://www.w3.org/2000/svg"
   xmlns="http://www.w3.org/2000/svg"
   xmlns:xlink="http://www.w3.org/1999/xlink"
   version="1.1"
   width="66"
   height="60"
   id="svg2">
  <defs
     id="defs4">
    <linearGradient
       id="linearGradient3937">
      <stop
         id="stop3939"
         style="stop-color:#607da7;stop-opacity:1"
         offset="0" />
      <stop
         id="stop3941"
         style="stop-color:#5f7da6;stop-opacity:1"
         offset="1" />
    </linearGradient>
    <linearGradient
       id="linearGradient3927">
      <stop
         id="stop3929"
         style="stop-color:#577399;stop-opacity:1"
         offset="0" />
      <stop
         id="stop3931"
         style="stop-color:#3b424d;stop-opacity:1"
         offset="1" />
    </linearGradient>
    <linearGradient
       id="linearGradient3880">
      <stop
         id="stop3882"
         style="stop-color:#42628c;stop-opacity:1"
         offset="0" />
      <stop
         id="stop3884"
         style="stop-color:#ffffff;stop-opacity:0.46666667"
         offset="1" />
    </linearGradient>
    <linearGradient
       id="linearGradient3672">
      <stop
         id="stop3674"
         style="stop-color:#8ea3c1;stop-opacity:1"
         offset="0" />
      <stop
         id="stop3676"
         style="stop-color:#5f7da6;stop-opacity:1"
         offset="1" />
    </linearGradient>
    <linearGradient
       x1="0.85642862"
       y1="1036.8389"
       x2="64.997696"
       y2="1036.8389"
       id="linearGradient3886"
       xlink:href="#linearGradient3880"
       gradientUnits="userSpaceOnUse" />
    <linearGradient
       x1="32.927063"
       y1="1030.8624"
       x2="32.927063"
       y2="1051.3472"
       id="linearGradient3888"
       xlink:href="#linearGradient3880"
       gradientUnits="userSpaceOnUse"
       gradientTransform="matrix(1.0252581,0,0,1.0757574,-0.83167566,-78.548271)" />
    <linearGradient
       x1="35"
       y1="30"
       x2="35"
       y2="0"
       id="linearGradient3933"
       xlink:href="#linearGradient3927"
       gradientUnits="userSpaceOnUse" />
    <linearGradient
       x1="45"
       y1="3"
       x2="45"
       y2="20"
       id="linearGradient4016"
       xlink:href="#linearGradient3937"
       gradientUnits="userSpaceOnUse"
       gradientTransform="translate(0,992.3622)" />
    <linearGradient
       x1="5"
       y1="0"
       x2="5"
       y2="15"
       id="linearGradient4023"
       xlink:href="#linearGradient3672"
       gradientUnits="userSpaceOnUse"
       gradientTransform="matrix(1.931994,0,0,1.9259246,1.1,993.47337)" />
    <linearGradient
       x1="30"
       y1="45"
       x2="30"
       y2="60"
       id="linearGradient4029"
       xlink:href="#linearGradient3880"
       gradientUnits="userSpaceOnUse"
       gradientTransform="translate(0,992.3622)" />
  </defs>
  <g
     transform="translate(0,-992.3622)"
     id="layer1">
    <path
       d="m 2,1022.3622 0,20.1362 c 0,0 -0.04476,0.9148 0.1816406,2.0975 0.1132003,0.5915 0.2968143,1.2526 0.5751954,1.8879 0.2783811,0.6351 0.6647151,1.2568 1.180664,1.7678 0.484375,0.4795 1.0898438,0.839 1.725586,1.1088 0.6357422,0.2696 1.3017578,0.4494 1.9072265,0.5692 C 8.78125,1050.1694 9.75,1050.1694 9.75,1050.1694 l 46.5,0 c 0,0 0.96875,0 2.179688,-0.2398 0.605468,-0.1198 1.271484,-0.2996 1.907226,-0.5692 0.635742,-0.2698 1.241211,-0.6293 1.725586,-1.1088 0.484375,-0.4794 0.847656,-1.0787 1.120118,-1.7079 0.27246,-0.6293 0.4541,-1.2885 0.575194,-1.8878 C 64,1043.4573 64,1042.4984 64,1042.4984 l 0,-20.1362 -62,0 z"
       id="path4032"
       style="fill:#496a99;fill-opacity:1;fill-rule:evenodd;stroke:#000000;stroke-width:0;stroke-linejoin:round;stroke-miterlimit:6;stroke-opacity:1;stroke-dasharray:none" />
    <path
       d="m 62,1022.3622 0,-7.7037 c 0,0 -1.134934,-2.0482 -1.933333,-2.8889 C 58.959486,1010.6036 56.2,1008.8807 56.2,1008.8807 L 33,996.3622 l -0.966667,0 L 9.8,1008.8807 c 0,0 -2.7594862,1.7229 -3.8666667,2.8889 C 5.1349343,1012.6103 4,1014.6585 4,1014.6585 l 0,7.7037 58,0 z"
       id="path4019"
       style="fill:url(#linearGradient4023);fill-opacity:1;stroke:none" />
    <path
       d="m 1,30 0,-8 c 0,0 1.0448301,-2.855503 2,-4 1.0679124,-1.279586 4,-3 4,-3 L 32,1 33,1 59,15 c 0,0 2.932088,1.720414 4,3 0.95517,1.144497 2,4 2,4 l 0,8"
       transform="translate(0,992.3622)"
       id="path3925"
       style="fill:none;stroke:url(#linearGradient3933);stroke-width:2;stroke-linecap:butt;stroke-linejoin:round;stroke-miterlimit:4;stroke-opacity:1;stroke-dasharray:none" />
    <path
       d="m 3,1022.3622 c 0,-8 0,-8 0,-8 0,0 1.17407,-2.1269 2,-3 1.145359,-1.2108 4,-3 4,-3 l 23,-13 1,0 24,13 c 0,0 2.854641,1.7892 4,3 0.82593,0.8731 2,3 2,3 l 0,8"
       id="use4010"
       style="fill:none;stroke:url(#linearGradient4016);stroke-width:2;stroke-linecap:butt;stroke-linejoin:round;stroke-miterlimit:4;stroke-opacity:1;stroke-dasharray:none" />
    <path
       d="m 1,1022.3622 0,21 c 0,0 -0.13037,3.8684 2,6 2,2 6,2 6,2 l 48,0 c 0,0 4,0 6,-2 2,-2 2,-6 2,-6 l 0,-21"
       id="use4025"
       style="fill:none;stroke:url(#linearGradient4029);stroke-width:2;stroke-linecap:butt;stroke-linejoin:round;stroke-miterlimit:4;stroke-opacity:1;stroke-dasharray:none" />
  </g>
</svg>
